<mxfile host="app.diagrams.net" agent="Mozilla/5.0 (Windows NT 10.0; Win64; x64) AppleWebKit/537.36 (KHTML, like Gecko) Chrome/137.0.0.0 Safari/537.36 OPR/121.0.0.0" version="28.2.5">
  <diagram name="Page-1" id="TLwK3e4obofPGfRywd_k">
    <mxGraphModel dx="2768" dy="1592" grid="1" gridSize="10" guides="1" tooltips="1" connect="1" arrows="1" fold="1" page="1" pageScale="1" pageWidth="850" pageHeight="1100" math="0" shadow="0">
      <root>
        <mxCell id="0" />
        <mxCell id="1" parent="0" />
        <mxCell id="lE6g3fcUqyMcUWD-LAFn-11" style="edgeStyle=orthogonalEdgeStyle;rounded=0;orthogonalLoop=1;jettySize=auto;html=1;exitX=0.5;exitY=1;exitDx=0;exitDy=0;exitPerimeter=0;entryX=0.5;entryY=0;entryDx=0;entryDy=0;" parent="1" source="lE6g3fcUqyMcUWD-LAFn-1" target="lE6g3fcUqyMcUWD-LAFn-4" edge="1">
          <mxGeometry relative="1" as="geometry" />
        </mxCell>
        <mxCell id="lE6g3fcUqyMcUWD-LAFn-1" value="START" style="strokeWidth=2;html=1;shape=mxgraph.flowchart.terminator;whiteSpace=wrap;" parent="1" vertex="1">
          <mxGeometry x="240" y="50" width="110" height="50" as="geometry" />
        </mxCell>
        <mxCell id="lE6g3fcUqyMcUWD-LAFn-2" value="END" style="strokeWidth=2;html=1;shape=mxgraph.flowchart.terminator;whiteSpace=wrap;" parent="1" vertex="1">
          <mxGeometry x="105" y="790" width="110" height="40" as="geometry" />
        </mxCell>
        <mxCell id="lE6g3fcUqyMcUWD-LAFn-30" style="edgeStyle=orthogonalEdgeStyle;rounded=0;orthogonalLoop=1;jettySize=auto;html=1;exitX=0;exitY=0.25;exitDx=0;exitDy=0;entryX=0.5;entryY=0;entryDx=0;entryDy=0;" parent="1" source="lE6g3fcUqyMcUWD-LAFn-4" target="lE6g3fcUqyMcUWD-LAFn-25" edge="1">
          <mxGeometry relative="1" as="geometry">
            <mxPoint x="170" y="680" as="targetPoint" />
            <Array as="points">
              <mxPoint x="165" y="170" />
            </Array>
          </mxGeometry>
        </mxCell>
        <mxCell id="lE6g3fcUqyMcUWD-LAFn-4" value="Input harga barang" style="shape=parallelogram;html=1;strokeWidth=2;perimeter=parallelogramPerimeter;whiteSpace=wrap;rounded=1;arcSize=12;size=0.23;" parent="1" vertex="1">
          <mxGeometry x="200" y="150" width="190" height="60" as="geometry" />
        </mxCell>
        <mxCell id="lE6g3fcUqyMcUWD-LAFn-9" style="edgeStyle=orthogonalEdgeStyle;rounded=0;orthogonalLoop=1;jettySize=auto;html=1;exitX=1;exitY=0.5;exitDx=0;exitDy=0;exitPerimeter=0;" parent="1" source="lE6g3fcUqyMcUWD-LAFn-5" target="lE6g3fcUqyMcUWD-LAFn-8" edge="1">
          <mxGeometry relative="1" as="geometry" />
        </mxCell>
        <mxCell id="lE6g3fcUqyMcUWD-LAFn-13" value="False" style="edgeLabel;html=1;align=center;verticalAlign=middle;resizable=0;points=[];" parent="lE6g3fcUqyMcUWD-LAFn-9" vertex="1" connectable="0">
          <mxGeometry x="-0.12" relative="1" as="geometry">
            <mxPoint as="offset" />
          </mxGeometry>
        </mxCell>
        <mxCell id="lE6g3fcUqyMcUWD-LAFn-10" style="edgeStyle=orthogonalEdgeStyle;rounded=0;orthogonalLoop=1;jettySize=auto;html=1;exitX=0.5;exitY=1;exitDx=0;exitDy=0;exitPerimeter=0;entryX=0.5;entryY=0;entryDx=0;entryDy=0;" parent="1" source="lE6g3fcUqyMcUWD-LAFn-5" target="lE6g3fcUqyMcUWD-LAFn-7" edge="1">
          <mxGeometry relative="1" as="geometry" />
        </mxCell>
        <mxCell id="lE6g3fcUqyMcUWD-LAFn-14" value="True" style="edgeLabel;html=1;align=center;verticalAlign=middle;resizable=0;points=[];" parent="lE6g3fcUqyMcUWD-LAFn-10" vertex="1" connectable="0">
          <mxGeometry x="-0.06" y="2" relative="1" as="geometry">
            <mxPoint as="offset" />
          </mxGeometry>
        </mxCell>
        <mxCell id="lE6g3fcUqyMcUWD-LAFn-5" value="Apakah harga&lt;div&gt;&amp;gt;= 500000 ?&lt;/div&gt;" style="strokeWidth=2;html=1;shape=mxgraph.flowchart.decision;whiteSpace=wrap;" parent="1" vertex="1">
          <mxGeometry x="215" y="270" width="160" height="100" as="geometry" />
        </mxCell>
        <mxCell id="lE6g3fcUqyMcUWD-LAFn-7" value="Diskon 20%" style="rounded=1;whiteSpace=wrap;html=1;absoluteArcSize=1;arcSize=14;strokeWidth=2;" parent="1" vertex="1">
          <mxGeometry x="245" y="470" width="100" height="60" as="geometry" />
        </mxCell>
        <mxCell id="lE6g3fcUqyMcUWD-LAFn-17" style="edgeStyle=orthogonalEdgeStyle;rounded=0;orthogonalLoop=1;jettySize=auto;html=1;exitX=0.5;exitY=1;exitDx=0;exitDy=0;exitPerimeter=0;entryX=0.5;entryY=0;entryDx=0;entryDy=0;" parent="1" source="lE6g3fcUqyMcUWD-LAFn-8" target="lE6g3fcUqyMcUWD-LAFn-16" edge="1">
          <mxGeometry relative="1" as="geometry" />
        </mxCell>
        <mxCell id="lE6g3fcUqyMcUWD-LAFn-18" value="True" style="edgeLabel;html=1;align=center;verticalAlign=middle;resizable=0;points=[];" parent="lE6g3fcUqyMcUWD-LAFn-17" vertex="1" connectable="0">
          <mxGeometry x="-0.02" relative="1" as="geometry">
            <mxPoint as="offset" />
          </mxGeometry>
        </mxCell>
        <mxCell id="lE6g3fcUqyMcUWD-LAFn-8" value="Apakah harga&lt;div&gt;&amp;gt;= 300000 ?&lt;/div&gt;" style="strokeWidth=2;html=1;shape=mxgraph.flowchart.decision;whiteSpace=wrap;" parent="1" vertex="1">
          <mxGeometry x="450" y="270" width="160" height="100" as="geometry" />
        </mxCell>
        <mxCell id="lE6g3fcUqyMcUWD-LAFn-12" style="edgeStyle=orthogonalEdgeStyle;rounded=0;orthogonalLoop=1;jettySize=auto;html=1;exitX=0.5;exitY=1;exitDx=0;exitDy=0;entryX=0.5;entryY=0;entryDx=0;entryDy=0;entryPerimeter=0;" parent="1" source="lE6g3fcUqyMcUWD-LAFn-4" target="lE6g3fcUqyMcUWD-LAFn-5" edge="1">
          <mxGeometry relative="1" as="geometry" />
        </mxCell>
        <mxCell id="lE6g3fcUqyMcUWD-LAFn-21" style="edgeStyle=orthogonalEdgeStyle;rounded=0;orthogonalLoop=1;jettySize=auto;html=1;exitX=0.5;exitY=1;exitDx=0;exitDy=0;exitPerimeter=0;entryX=0.5;entryY=0;entryDx=0;entryDy=0;" parent="1" source="lE6g3fcUqyMcUWD-LAFn-15" target="lE6g3fcUqyMcUWD-LAFn-20" edge="1">
          <mxGeometry relative="1" as="geometry" />
        </mxCell>
        <mxCell id="lE6g3fcUqyMcUWD-LAFn-22" value="True" style="edgeLabel;html=1;align=center;verticalAlign=middle;resizable=0;points=[];" parent="lE6g3fcUqyMcUWD-LAFn-21" vertex="1" connectable="0">
          <mxGeometry x="-0.04" y="3" relative="1" as="geometry">
            <mxPoint as="offset" />
          </mxGeometry>
        </mxCell>
        <mxCell id="lE6g3fcUqyMcUWD-LAFn-27" style="edgeStyle=orthogonalEdgeStyle;rounded=0;orthogonalLoop=1;jettySize=auto;html=1;exitX=1;exitY=0.5;exitDx=0;exitDy=0;exitPerimeter=0;entryX=0;entryY=0.5;entryDx=0;entryDy=0;" parent="1" source="lE6g3fcUqyMcUWD-LAFn-15" target="lE6g3fcUqyMcUWD-LAFn-26" edge="1">
          <mxGeometry relative="1" as="geometry" />
        </mxCell>
        <mxCell id="lE6g3fcUqyMcUWD-LAFn-29" value="False" style="edgeLabel;html=1;align=center;verticalAlign=middle;resizable=0;points=[];" parent="lE6g3fcUqyMcUWD-LAFn-27" vertex="1" connectable="0">
          <mxGeometry x="-0.0254" y="-3" relative="1" as="geometry">
            <mxPoint as="offset" />
          </mxGeometry>
        </mxCell>
        <mxCell id="lE6g3fcUqyMcUWD-LAFn-15" value="Apakah harga&lt;div&gt;&amp;gt;= 100000 ?&lt;/div&gt;" style="strokeWidth=2;html=1;shape=mxgraph.flowchart.decision;whiteSpace=wrap;" parent="1" vertex="1">
          <mxGeometry x="690" y="270" width="160" height="100" as="geometry" />
        </mxCell>
        <mxCell id="lE6g3fcUqyMcUWD-LAFn-16" value="Diskon 15%" style="rounded=1;whiteSpace=wrap;html=1;absoluteArcSize=1;arcSize=14;strokeWidth=2;" parent="1" vertex="1">
          <mxGeometry x="480" y="470" width="100" height="60" as="geometry" />
        </mxCell>
        <mxCell id="lE6g3fcUqyMcUWD-LAFn-19" style="edgeStyle=orthogonalEdgeStyle;rounded=0;orthogonalLoop=1;jettySize=auto;html=1;exitX=1;exitY=0.5;exitDx=0;exitDy=0;exitPerimeter=0;entryX=0;entryY=0.5;entryDx=0;entryDy=0;entryPerimeter=0;" parent="1" source="lE6g3fcUqyMcUWD-LAFn-8" target="lE6g3fcUqyMcUWD-LAFn-15" edge="1">
          <mxGeometry relative="1" as="geometry" />
        </mxCell>
        <mxCell id="lE6g3fcUqyMcUWD-LAFn-24" value="False" style="edgeLabel;html=1;align=center;verticalAlign=middle;resizable=0;points=[];" parent="lE6g3fcUqyMcUWD-LAFn-19" vertex="1" connectable="0">
          <mxGeometry x="0.025" relative="1" as="geometry">
            <mxPoint as="offset" />
          </mxGeometry>
        </mxCell>
        <mxCell id="lE6g3fcUqyMcUWD-LAFn-20" value="Diskon 10%" style="rounded=1;whiteSpace=wrap;html=1;absoluteArcSize=1;arcSize=14;strokeWidth=2;" parent="1" vertex="1">
          <mxGeometry x="720" y="470" width="100" height="60" as="geometry" />
        </mxCell>
        <mxCell id="lE6g3fcUqyMcUWD-LAFn-33" style="edgeStyle=orthogonalEdgeStyle;rounded=0;orthogonalLoop=1;jettySize=auto;html=1;exitX=0.5;exitY=1;exitDx=0;exitDy=0;entryX=0.5;entryY=0;entryDx=0;entryDy=0;" parent="1" source="lE6g3fcUqyMcUWD-LAFn-25" target="lE6g3fcUqyMcUWD-LAFn-32" edge="1">
          <mxGeometry relative="1" as="geometry" />
        </mxCell>
        <mxCell id="lE6g3fcUqyMcUWD-LAFn-25" value="Hitung total = harga - (harga * diskon / 100)" style="rounded=1;whiteSpace=wrap;html=1;absoluteArcSize=1;arcSize=14;strokeWidth=2;" parent="1" vertex="1">
          <mxGeometry x="25" y="620" width="270" height="40" as="geometry" />
        </mxCell>
        <mxCell id="lE6g3fcUqyMcUWD-LAFn-26" value="Output | &quot;Tidak dapat diskon&quot;" style="shape=parallelogram;html=1;strokeWidth=2;perimeter=parallelogramPerimeter;whiteSpace=wrap;rounded=1;arcSize=12;size=0.23;" parent="1" vertex="1">
          <mxGeometry x="940" y="290" width="230" height="60" as="geometry" />
        </mxCell>
        <mxCell id="lE6g3fcUqyMcUWD-LAFn-32" value="Tampilkan hasil ke layar&lt;div&gt;&quot;harga total&quot;&lt;/div&gt;" style="shape=parallelogram;html=1;strokeWidth=2;perimeter=parallelogramPerimeter;whiteSpace=wrap;rounded=1;arcSize=12;size=0.23;" parent="1" vertex="1">
          <mxGeometry x="45" y="690" width="230" height="60" as="geometry" />
        </mxCell>
        <mxCell id="lE6g3fcUqyMcUWD-LAFn-34" style="edgeStyle=orthogonalEdgeStyle;rounded=0;orthogonalLoop=1;jettySize=auto;html=1;exitX=0.5;exitY=1;exitDx=0;exitDy=0;entryX=0.5;entryY=0;entryDx=0;entryDy=0;entryPerimeter=0;" parent="1" source="lE6g3fcUqyMcUWD-LAFn-32" target="lE6g3fcUqyMcUWD-LAFn-2" edge="1">
          <mxGeometry relative="1" as="geometry" />
        </mxCell>
        <mxCell id="lE6g3fcUqyMcUWD-LAFn-35" style="edgeStyle=orthogonalEdgeStyle;rounded=0;orthogonalLoop=1;jettySize=auto;html=1;entryX=1;entryY=0.5;entryDx=0;entryDy=0;entryPerimeter=0;" parent="1" target="lE6g3fcUqyMcUWD-LAFn-2" edge="1">
          <mxGeometry relative="1" as="geometry">
            <mxPoint x="1055" y="350" as="sourcePoint" />
            <mxPoint x="230" y="810" as="targetPoint" />
            <Array as="points">
              <mxPoint x="1055" y="810" />
            </Array>
          </mxGeometry>
        </mxCell>
        <mxCell id="lE6g3fcUqyMcUWD-LAFn-60" style="edgeStyle=orthogonalEdgeStyle;rounded=0;orthogonalLoop=1;jettySize=auto;html=1;exitX=0.5;exitY=1;exitDx=0;exitDy=0;exitPerimeter=0;entryX=0.5;entryY=0;entryDx=0;entryDy=0;" parent="1" source="lE6g3fcUqyMcUWD-LAFn-36" target="lE6g3fcUqyMcUWD-LAFn-37" edge="1">
          <mxGeometry relative="1" as="geometry" />
        </mxCell>
        <mxCell id="lE6g3fcUqyMcUWD-LAFn-36" value="START" style="strokeWidth=2;html=1;shape=mxgraph.flowchart.terminator;whiteSpace=wrap;" parent="1" vertex="1">
          <mxGeometry x="2220" y="50" width="110" height="50" as="geometry" />
        </mxCell>
        <mxCell id="lE6g3fcUqyMcUWD-LAFn-37" value="Input nilai mahasiswa" style="shape=parallelogram;html=1;strokeWidth=2;perimeter=parallelogramPerimeter;whiteSpace=wrap;rounded=1;arcSize=12;size=0.23;" parent="1" vertex="1">
          <mxGeometry x="2180" y="160" width="190" height="60" as="geometry" />
        </mxCell>
        <mxCell id="lE6g3fcUqyMcUWD-LAFn-38" value="jika nilai &amp;gt;= 60 ?" style="strokeWidth=2;html=1;shape=mxgraph.flowchart.decision;whiteSpace=wrap;" parent="1" vertex="1">
          <mxGeometry x="2195" y="310" width="160" height="100" as="geometry" />
        </mxCell>
        <mxCell id="lE6g3fcUqyMcUWD-LAFn-61" style="edgeStyle=orthogonalEdgeStyle;rounded=0;orthogonalLoop=1;jettySize=auto;html=1;exitX=0.5;exitY=1;exitDx=0;exitDy=0;entryX=0.5;entryY=0;entryDx=0;entryDy=0;entryPerimeter=0;" parent="1" source="lE6g3fcUqyMcUWD-LAFn-37" target="lE6g3fcUqyMcUWD-LAFn-38" edge="1">
          <mxGeometry relative="1" as="geometry" />
        </mxCell>
        <mxCell id="ahNSXJB-4KFpe-alIdmP-8" style="edgeStyle=none;curved=1;rounded=0;orthogonalLoop=1;jettySize=auto;html=1;exitX=0;exitY=0.5;exitDx=0;exitDy=0;exitPerimeter=0;entryX=1;entryY=0.5;entryDx=0;entryDy=0;fontSize=12;startSize=8;endSize=8;" edge="1" parent="1" source="ahNSXJB-4KFpe-alIdmP-3" target="ahNSXJB-4KFpe-alIdmP-7">
          <mxGeometry relative="1" as="geometry" />
        </mxCell>
        <mxCell id="ahNSXJB-4KFpe-alIdmP-9" value="True" style="edgeLabel;html=1;align=center;verticalAlign=middle;resizable=0;points=[];fontSize=12;" vertex="1" connectable="0" parent="ahNSXJB-4KFpe-alIdmP-8">
          <mxGeometry x="0.1241" y="-1" relative="1" as="geometry">
            <mxPoint as="offset" />
          </mxGeometry>
        </mxCell>
        <mxCell id="ahNSXJB-4KFpe-alIdmP-3" value="Jika nilai &amp;gt;= 85 ?" style="strokeWidth=2;html=1;shape=mxgraph.flowchart.decision;whiteSpace=wrap;" vertex="1" parent="1">
          <mxGeometry x="1960" y="310" width="160" height="100" as="geometry" />
        </mxCell>
        <mxCell id="ahNSXJB-4KFpe-alIdmP-4" style="edgeStyle=none;curved=1;rounded=0;orthogonalLoop=1;jettySize=auto;html=1;exitX=0;exitY=0.5;exitDx=0;exitDy=0;exitPerimeter=0;entryX=1;entryY=0.5;entryDx=0;entryDy=0;entryPerimeter=0;fontSize=12;startSize=8;endSize=8;" edge="1" parent="1" source="lE6g3fcUqyMcUWD-LAFn-38" target="ahNSXJB-4KFpe-alIdmP-3">
          <mxGeometry relative="1" as="geometry" />
        </mxCell>
        <mxCell id="ahNSXJB-4KFpe-alIdmP-5" value="True" style="edgeLabel;html=1;align=center;verticalAlign=middle;resizable=0;points=[];fontSize=12;" vertex="1" connectable="0" parent="ahNSXJB-4KFpe-alIdmP-4">
          <mxGeometry x="-0.0796" relative="1" as="geometry">
            <mxPoint as="offset" />
          </mxGeometry>
        </mxCell>
        <mxCell id="ahNSXJB-4KFpe-alIdmP-7" value="Lulus + A" style="rounded=1;whiteSpace=wrap;html=1;absoluteArcSize=1;arcSize=14;strokeWidth=2;" vertex="1" parent="1">
          <mxGeometry x="1760" y="340" width="110" height="40" as="geometry" />
        </mxCell>
        <mxCell id="ahNSXJB-4KFpe-alIdmP-16" style="edgeStyle=none;curved=1;rounded=0;orthogonalLoop=1;jettySize=auto;html=1;exitX=0;exitY=0.5;exitDx=0;exitDy=0;exitPerimeter=0;entryX=1;entryY=0.5;entryDx=0;entryDy=0;fontSize=12;startSize=8;endSize=8;" edge="1" parent="1" source="ahNSXJB-4KFpe-alIdmP-11" target="ahNSXJB-4KFpe-alIdmP-15">
          <mxGeometry relative="1" as="geometry" />
        </mxCell>
        <mxCell id="ahNSXJB-4KFpe-alIdmP-17" value="True" style="edgeLabel;html=1;align=center;verticalAlign=middle;resizable=0;points=[];fontSize=12;" vertex="1" connectable="0" parent="ahNSXJB-4KFpe-alIdmP-16">
          <mxGeometry x="-0.1685" y="2" relative="1" as="geometry">
            <mxPoint as="offset" />
          </mxGeometry>
        </mxCell>
        <mxCell id="ahNSXJB-4KFpe-alIdmP-11" value="Jika nilai &amp;gt;= 70&amp;nbsp;&lt;div&gt;dan &amp;lt;= 84 ?&lt;/div&gt;" style="strokeWidth=2;html=1;shape=mxgraph.flowchart.decision;whiteSpace=wrap;" vertex="1" parent="1">
          <mxGeometry x="1960" y="510" width="160" height="100" as="geometry" />
        </mxCell>
        <mxCell id="ahNSXJB-4KFpe-alIdmP-12" style="edgeStyle=none;curved=1;rounded=0;orthogonalLoop=1;jettySize=auto;html=1;exitX=0.5;exitY=1;exitDx=0;exitDy=0;exitPerimeter=0;entryX=0.5;entryY=0;entryDx=0;entryDy=0;entryPerimeter=0;fontSize=12;startSize=8;endSize=8;" edge="1" parent="1" source="ahNSXJB-4KFpe-alIdmP-3" target="ahNSXJB-4KFpe-alIdmP-11">
          <mxGeometry relative="1" as="geometry" />
        </mxCell>
        <mxCell id="ahNSXJB-4KFpe-alIdmP-14" value="False" style="edgeLabel;html=1;align=center;verticalAlign=middle;resizable=0;points=[];fontSize=12;" vertex="1" connectable="0" parent="ahNSXJB-4KFpe-alIdmP-12">
          <mxGeometry x="-0.0233" relative="1" as="geometry">
            <mxPoint as="offset" />
          </mxGeometry>
        </mxCell>
        <mxCell id="ahNSXJB-4KFpe-alIdmP-15" value="Lulus + B" style="rounded=1;whiteSpace=wrap;html=1;absoluteArcSize=1;arcSize=14;strokeWidth=2;" vertex="1" parent="1">
          <mxGeometry x="1760" y="540" width="110" height="40" as="geometry" />
        </mxCell>
        <mxCell id="ahNSXJB-4KFpe-alIdmP-22" style="edgeStyle=none;curved=1;rounded=0;orthogonalLoop=1;jettySize=auto;html=1;exitX=0;exitY=0.5;exitDx=0;exitDy=0;exitPerimeter=0;entryX=1;entryY=0.5;entryDx=0;entryDy=0;fontSize=12;startSize=8;endSize=8;" edge="1" parent="1" source="ahNSXJB-4KFpe-alIdmP-18" target="ahNSXJB-4KFpe-alIdmP-21">
          <mxGeometry relative="1" as="geometry" />
        </mxCell>
        <mxCell id="ahNSXJB-4KFpe-alIdmP-23" value="True" style="edgeLabel;html=1;align=center;verticalAlign=middle;resizable=0;points=[];fontSize=12;" vertex="1" connectable="0" parent="ahNSXJB-4KFpe-alIdmP-22">
          <mxGeometry x="-0.1074" y="-1" relative="1" as="geometry">
            <mxPoint as="offset" />
          </mxGeometry>
        </mxCell>
        <mxCell id="ahNSXJB-4KFpe-alIdmP-18" value="Jika nilai &amp;gt;= 60&lt;div&gt;dan &amp;lt;= 69 ?&lt;/div&gt;" style="strokeWidth=2;html=1;shape=mxgraph.flowchart.decision;whiteSpace=wrap;" vertex="1" parent="1">
          <mxGeometry x="1960" y="710" width="160" height="100" as="geometry" />
        </mxCell>
        <mxCell id="ahNSXJB-4KFpe-alIdmP-19" style="edgeStyle=none;curved=1;rounded=0;orthogonalLoop=1;jettySize=auto;html=1;exitX=0.5;exitY=1;exitDx=0;exitDy=0;exitPerimeter=0;entryX=0.5;entryY=0;entryDx=0;entryDy=0;entryPerimeter=0;fontSize=12;startSize=8;endSize=8;" edge="1" parent="1" source="ahNSXJB-4KFpe-alIdmP-11" target="ahNSXJB-4KFpe-alIdmP-18">
          <mxGeometry relative="1" as="geometry" />
        </mxCell>
        <mxCell id="ahNSXJB-4KFpe-alIdmP-20" value="False" style="edgeLabel;html=1;align=center;verticalAlign=middle;resizable=0;points=[];fontSize=12;" vertex="1" connectable="0" parent="ahNSXJB-4KFpe-alIdmP-19">
          <mxGeometry x="0.0667" y="-3" relative="1" as="geometry">
            <mxPoint x="3" y="2" as="offset" />
          </mxGeometry>
        </mxCell>
        <mxCell id="ahNSXJB-4KFpe-alIdmP-21" value="Lulus + C" style="rounded=1;whiteSpace=wrap;html=1;absoluteArcSize=1;arcSize=14;strokeWidth=2;" vertex="1" parent="1">
          <mxGeometry x="1760" y="740" width="110" height="40" as="geometry" />
        </mxCell>
        <mxCell id="ahNSXJB-4KFpe-alIdmP-24" value="END" style="strokeWidth=2;html=1;shape=mxgraph.flowchart.terminator;whiteSpace=wrap;" vertex="1" parent="1">
          <mxGeometry x="1985" y="900" width="110" height="50" as="geometry" />
        </mxCell>
        <mxCell id="ahNSXJB-4KFpe-alIdmP-26" style="edgeStyle=none;curved=1;rounded=0;orthogonalLoop=1;jettySize=auto;html=1;exitX=0.5;exitY=1;exitDx=0;exitDy=0;exitPerimeter=0;entryX=1;entryY=0.5;entryDx=0;entryDy=0;entryPerimeter=0;fontSize=12;startSize=8;endSize=8;" edge="1" parent="1" source="lE6g3fcUqyMcUWD-LAFn-38" target="ahNSXJB-4KFpe-alIdmP-24">
          <mxGeometry relative="1" as="geometry" />
        </mxCell>
        <mxCell id="ahNSXJB-4KFpe-alIdmP-28" value="False" style="edgeLabel;html=1;align=center;verticalAlign=middle;resizable=0;points=[];fontSize=12;" vertex="1" connectable="0" parent="ahNSXJB-4KFpe-alIdmP-26">
          <mxGeometry x="-0.1357" y="2" relative="1" as="geometry">
            <mxPoint x="-9" y="17" as="offset" />
          </mxGeometry>
        </mxCell>
        <mxCell id="ahNSXJB-4KFpe-alIdmP-27" style="edgeStyle=none;curved=1;rounded=0;orthogonalLoop=1;jettySize=auto;html=1;exitX=0.5;exitY=1;exitDx=0;exitDy=0;exitPerimeter=0;entryX=0.5;entryY=0;entryDx=0;entryDy=0;entryPerimeter=0;fontSize=12;startSize=8;endSize=8;" edge="1" parent="1" source="ahNSXJB-4KFpe-alIdmP-18" target="ahNSXJB-4KFpe-alIdmP-24">
          <mxGeometry relative="1" as="geometry" />
        </mxCell>
        <mxCell id="ahNSXJB-4KFpe-alIdmP-31" style="edgeStyle=none;curved=1;rounded=0;orthogonalLoop=1;jettySize=auto;html=1;exitX=0.5;exitY=1;exitDx=0;exitDy=0;exitPerimeter=0;entryX=0.5;entryY=0;entryDx=0;entryDy=0;fontSize=12;startSize=8;endSize=8;" edge="1" parent="1" source="ahNSXJB-4KFpe-alIdmP-29" target="ahNSXJB-4KFpe-alIdmP-30">
          <mxGeometry relative="1" as="geometry" />
        </mxCell>
        <mxCell id="ahNSXJB-4KFpe-alIdmP-29" value="START" style="strokeWidth=2;html=1;shape=mxgraph.flowchart.terminator;whiteSpace=wrap;" vertex="1" parent="1">
          <mxGeometry x="2264.5" y="1116" width="110" height="50" as="geometry" />
        </mxCell>
        <mxCell id="ahNSXJB-4KFpe-alIdmP-30" value="Input angka menu" style="shape=parallelogram;html=1;strokeWidth=2;perimeter=parallelogramPerimeter;whiteSpace=wrap;rounded=1;arcSize=12;size=0.23;" vertex="1" parent="1">
          <mxGeometry x="2204.5" y="1226" width="230" height="60" as="geometry" />
        </mxCell>
        <mxCell id="ahNSXJB-4KFpe-alIdmP-36" style="edgeStyle=none;curved=1;rounded=0;orthogonalLoop=1;jettySize=auto;html=1;exitX=1;exitY=0.5;exitDx=0;exitDy=0;exitPerimeter=0;entryX=0;entryY=0.5;entryDx=0;entryDy=0;fontSize=12;startSize=8;endSize=8;" edge="1" parent="1" source="ahNSXJB-4KFpe-alIdmP-32" target="ahNSXJB-4KFpe-alIdmP-35">
          <mxGeometry relative="1" as="geometry" />
        </mxCell>
        <mxCell id="ahNSXJB-4KFpe-alIdmP-32" value="Jika angka 1" style="strokeWidth=2;html=1;shape=mxgraph.flowchart.decision;whiteSpace=wrap;" vertex="1" parent="1">
          <mxGeometry x="2119.5" y="1406" width="160" height="100" as="geometry" />
        </mxCell>
        <mxCell id="ahNSXJB-4KFpe-alIdmP-33" style="edgeStyle=none;curved=1;rounded=0;orthogonalLoop=1;jettySize=auto;html=1;exitX=0.5;exitY=1;exitDx=0;exitDy=0;entryX=0.5;entryY=0;entryDx=0;entryDy=0;entryPerimeter=0;fontSize=12;startSize=8;endSize=8;" edge="1" parent="1" source="ahNSXJB-4KFpe-alIdmP-30" target="ahNSXJB-4KFpe-alIdmP-32">
          <mxGeometry relative="1" as="geometry" />
        </mxCell>
        <mxCell id="ahNSXJB-4KFpe-alIdmP-35" value="Nasi Goreng" style="rounded=1;whiteSpace=wrap;html=1;absoluteArcSize=1;arcSize=14;strokeWidth=2;" vertex="1" parent="1">
          <mxGeometry x="2419.5" y="1436" width="110" height="40" as="geometry" />
        </mxCell>
        <mxCell id="ahNSXJB-4KFpe-alIdmP-37" style="edgeStyle=none;curved=1;rounded=0;orthogonalLoop=1;jettySize=auto;html=1;exitX=0;exitY=0;exitDx=0;exitDy=0;fontSize=12;startSize=8;endSize=8;" edge="1" parent="1" source="ahNSXJB-4KFpe-alIdmP-35" target="ahNSXJB-4KFpe-alIdmP-35">
          <mxGeometry relative="1" as="geometry" />
        </mxCell>
        <mxCell id="ahNSXJB-4KFpe-alIdmP-41" style="edgeStyle=none;curved=1;rounded=0;orthogonalLoop=1;jettySize=auto;html=1;exitX=1;exitY=0.5;exitDx=0;exitDy=0;exitPerimeter=0;entryX=0;entryY=0.5;entryDx=0;entryDy=0;fontSize=12;startSize=8;endSize=8;" edge="1" parent="1" source="ahNSXJB-4KFpe-alIdmP-39" target="ahNSXJB-4KFpe-alIdmP-40">
          <mxGeometry relative="1" as="geometry" />
        </mxCell>
        <mxCell id="ahNSXJB-4KFpe-alIdmP-39" value="Jika angka 2" style="strokeWidth=2;html=1;shape=mxgraph.flowchart.decision;whiteSpace=wrap;" vertex="1" parent="1">
          <mxGeometry x="2119.5" y="1556" width="160" height="100" as="geometry" />
        </mxCell>
        <mxCell id="ahNSXJB-4KFpe-alIdmP-40" value="Mie Ayam" style="rounded=1;whiteSpace=wrap;html=1;absoluteArcSize=1;arcSize=14;strokeWidth=2;" vertex="1" parent="1">
          <mxGeometry x="2419.5" y="1586" width="110" height="40" as="geometry" />
        </mxCell>
        <mxCell id="ahNSXJB-4KFpe-alIdmP-42" style="edgeStyle=none;curved=1;rounded=0;orthogonalLoop=1;jettySize=auto;html=1;exitX=0.5;exitY=1;exitDx=0;exitDy=0;exitPerimeter=0;entryX=0.5;entryY=0;entryDx=0;entryDy=0;entryPerimeter=0;fontSize=12;startSize=8;endSize=8;" edge="1" parent="1" source="ahNSXJB-4KFpe-alIdmP-32" target="ahNSXJB-4KFpe-alIdmP-39">
          <mxGeometry relative="1" as="geometry" />
        </mxCell>
        <mxCell id="ahNSXJB-4KFpe-alIdmP-48" value="Jika angka 3" style="strokeWidth=2;html=1;shape=mxgraph.flowchart.decision;whiteSpace=wrap;" vertex="1" parent="1">
          <mxGeometry x="2119.5" y="1706" width="160" height="100" as="geometry" />
        </mxCell>
        <mxCell id="ahNSXJB-4KFpe-alIdmP-49" style="edgeStyle=none;curved=1;rounded=0;orthogonalLoop=1;jettySize=auto;html=1;exitX=1;exitY=0.5;exitDx=0;exitDy=0;exitPerimeter=0;entryX=0;entryY=0.5;entryDx=0;entryDy=0;fontSize=12;startSize=8;endSize=8;" edge="1" source="ahNSXJB-4KFpe-alIdmP-48" target="ahNSXJB-4KFpe-alIdmP-50" parent="1">
          <mxGeometry relative="1" as="geometry" />
        </mxCell>
        <mxCell id="ahNSXJB-4KFpe-alIdmP-50" value="Soto Ayam" style="rounded=1;whiteSpace=wrap;html=1;absoluteArcSize=1;arcSize=14;strokeWidth=2;" vertex="1" parent="1">
          <mxGeometry x="2419.5" y="1736" width="110" height="40" as="geometry" />
        </mxCell>
        <mxCell id="ahNSXJB-4KFpe-alIdmP-51" style="edgeStyle=none;curved=1;rounded=0;orthogonalLoop=1;jettySize=auto;html=1;exitX=1;exitY=0.5;exitDx=0;exitDy=0;exitPerimeter=0;entryX=0;entryY=0.5;entryDx=0;entryDy=0;fontSize=12;startSize=8;endSize=8;" edge="1" source="ahNSXJB-4KFpe-alIdmP-53" target="ahNSXJB-4KFpe-alIdmP-52" parent="1">
          <mxGeometry relative="1" as="geometry" />
        </mxCell>
        <mxCell id="ahNSXJB-4KFpe-alIdmP-52" value="Bakso" style="rounded=1;whiteSpace=wrap;html=1;absoluteArcSize=1;arcSize=14;strokeWidth=2;" vertex="1" parent="1">
          <mxGeometry x="2419.5" y="1886" width="110" height="40" as="geometry" />
        </mxCell>
        <mxCell id="ahNSXJB-4KFpe-alIdmP-57" style="edgeStyle=none;curved=1;rounded=0;orthogonalLoop=1;jettySize=auto;html=1;exitX=0.5;exitY=1;exitDx=0;exitDy=0;exitPerimeter=0;entryX=0.5;entryY=0;entryDx=0;entryDy=0;fontSize=12;startSize=8;endSize=8;" edge="1" parent="1" source="ahNSXJB-4KFpe-alIdmP-53" target="ahNSXJB-4KFpe-alIdmP-56">
          <mxGeometry relative="1" as="geometry" />
        </mxCell>
        <mxCell id="ahNSXJB-4KFpe-alIdmP-58" value="True" style="edgeLabel;html=1;align=center;verticalAlign=middle;resizable=0;points=[];fontSize=12;" vertex="1" connectable="0" parent="ahNSXJB-4KFpe-alIdmP-57">
          <mxGeometry x="-0.0536" relative="1" as="geometry">
            <mxPoint as="offset" />
          </mxGeometry>
        </mxCell>
        <mxCell id="ahNSXJB-4KFpe-alIdmP-61" style="edgeStyle=none;curved=1;rounded=0;orthogonalLoop=1;jettySize=auto;html=1;exitX=0;exitY=0.5;exitDx=0;exitDy=0;exitPerimeter=0;entryX=1;entryY=0.5;entryDx=0;entryDy=0;fontSize=12;startSize=8;endSize=8;" edge="1" parent="1" source="ahNSXJB-4KFpe-alIdmP-53" target="ahNSXJB-4KFpe-alIdmP-60">
          <mxGeometry relative="1" as="geometry" />
        </mxCell>
        <mxCell id="ahNSXJB-4KFpe-alIdmP-62" value="False" style="edgeLabel;html=1;align=center;verticalAlign=middle;resizable=0;points=[];fontSize=12;" vertex="1" connectable="0" parent="ahNSXJB-4KFpe-alIdmP-61">
          <mxGeometry x="-0.0313" y="2" relative="1" as="geometry">
            <mxPoint as="offset" />
          </mxGeometry>
        </mxCell>
        <mxCell id="ahNSXJB-4KFpe-alIdmP-53" value="Jika angka 4" style="strokeWidth=2;html=1;shape=mxgraph.flowchart.decision;whiteSpace=wrap;" vertex="1" parent="1">
          <mxGeometry x="2119.5" y="1856" width="160" height="100" as="geometry" />
        </mxCell>
        <mxCell id="ahNSXJB-4KFpe-alIdmP-54" style="edgeStyle=none;curved=1;rounded=0;orthogonalLoop=1;jettySize=auto;html=1;exitX=0.5;exitY=1;exitDx=0;exitDy=0;exitPerimeter=0;entryX=0.5;entryY=0;entryDx=0;entryDy=0;entryPerimeter=0;fontSize=12;startSize=8;endSize=8;" edge="1" parent="1" source="ahNSXJB-4KFpe-alIdmP-39" target="ahNSXJB-4KFpe-alIdmP-48">
          <mxGeometry relative="1" as="geometry" />
        </mxCell>
        <mxCell id="ahNSXJB-4KFpe-alIdmP-55" style="edgeStyle=none;curved=1;rounded=0;orthogonalLoop=1;jettySize=auto;html=1;exitX=0.5;exitY=1;exitDx=0;exitDy=0;exitPerimeter=0;entryX=0.5;entryY=0;entryDx=0;entryDy=0;entryPerimeter=0;fontSize=12;startSize=8;endSize=8;" edge="1" parent="1" source="ahNSXJB-4KFpe-alIdmP-48" target="ahNSXJB-4KFpe-alIdmP-53">
          <mxGeometry relative="1" as="geometry" />
        </mxCell>
        <mxCell id="ahNSXJB-4KFpe-alIdmP-56" value="Memberi output apa yang kita pesan" style="shape=parallelogram;html=1;strokeWidth=2;perimeter=parallelogramPerimeter;whiteSpace=wrap;rounded=1;arcSize=12;size=0.23;" vertex="1" parent="1">
          <mxGeometry x="2057" y="2076" width="285" height="80" as="geometry" />
        </mxCell>
        <mxCell id="ahNSXJB-4KFpe-alIdmP-59" value="END" style="strokeWidth=2;html=1;shape=mxgraph.flowchart.terminator;whiteSpace=wrap;" vertex="1" parent="1">
          <mxGeometry x="1859.5" y="2090" width="110" height="50" as="geometry" />
        </mxCell>
        <mxCell id="ahNSXJB-4KFpe-alIdmP-60" value="Menu tidak valid" style="shape=parallelogram;html=1;strokeWidth=2;perimeter=parallelogramPerimeter;whiteSpace=wrap;rounded=1;arcSize=12;size=0.23;" vertex="1" parent="1">
          <mxGeometry x="1772" y="1866" width="285" height="80" as="geometry" />
        </mxCell>
        <mxCell id="ahNSXJB-4KFpe-alIdmP-63" style="edgeStyle=none;curved=1;rounded=0;orthogonalLoop=1;jettySize=auto;html=1;exitX=0.5;exitY=1;exitDx=0;exitDy=0;entryX=0.5;entryY=0;entryDx=0;entryDy=0;entryPerimeter=0;fontSize=12;startSize=8;endSize=8;" edge="1" parent="1" source="ahNSXJB-4KFpe-alIdmP-60" target="ahNSXJB-4KFpe-alIdmP-59">
          <mxGeometry relative="1" as="geometry" />
        </mxCell>
        <mxCell id="ahNSXJB-4KFpe-alIdmP-64" style="edgeStyle=none;curved=1;rounded=0;orthogonalLoop=1;jettySize=auto;html=1;exitX=0;exitY=0.5;exitDx=0;exitDy=0;entryX=1;entryY=0.5;entryDx=0;entryDy=0;entryPerimeter=0;fontSize=12;startSize=8;endSize=8;" edge="1" parent="1" source="ahNSXJB-4KFpe-alIdmP-56" target="ahNSXJB-4KFpe-alIdmP-59">
          <mxGeometry relative="1" as="geometry" />
        </mxCell>
        <mxCell id="ahNSXJB-4KFpe-alIdmP-65" value="&lt;font style=&quot;font-size: 38px;&quot;&gt;Tugas Pertama&lt;/font&gt;" style="text;html=1;align=center;verticalAlign=middle;resizable=0;points=[];autosize=1;strokeColor=none;fillColor=none;fontSize=16;" vertex="1" parent="1">
          <mxGeometry x="410" y="20" width="280" height="60" as="geometry" />
        </mxCell>
        <mxCell id="ahNSXJB-4KFpe-alIdmP-66" value="&lt;font style=&quot;font-size: 38px;&quot;&gt;Tugas kedua&lt;/font&gt;" style="text;html=1;align=center;verticalAlign=middle;resizable=0;points=[];autosize=1;strokeColor=none;fillColor=none;fontSize=16;" vertex="1" parent="1">
          <mxGeometry x="1770" y="50" width="240" height="60" as="geometry" />
        </mxCell>
        <mxCell id="ahNSXJB-4KFpe-alIdmP-67" value="&lt;font style=&quot;font-size: 38px;&quot;&gt;Tugas ketiga&lt;/font&gt;" style="text;html=1;align=center;verticalAlign=middle;resizable=0;points=[];autosize=1;strokeColor=none;fillColor=none;fontSize=16;" vertex="1" parent="1">
          <mxGeometry x="1780" y="1160" width="240" height="60" as="geometry" />
        </mxCell>
      </root>
    </mxGraphModel>
  </diagram>
</mxfile>
